# xmcd
#
# Track frame offsets:
#	150
#	9305
#	19518
#	30691
#	43188
#	53089
#	63692
#	75729
#	87149
#	98625
#	113111
#
# Disc length: 1649 seconds
#
# Revision: 0
# Processed by: cddbd v1.5.2PL0 Copyright (c) Steve Scherf et al.
# Submitted via: EasyCDDAExtractor 12.0.1.1
#
DISCID=7d066f0b
DTITLE=Jann Browne - Buckin' Around: Tribute to Legend Buck Owens
DYEAR=2007
DGENRE=Country
TTITLE0=Love's Gonna Live Here
TTITLE1=Before You Go
TTITLE2=Excuse Me (I Think I've Got A heartache)
TTITLE3=Play Together Again, Again
TTITLE4=I Don't Care
TTITLE5=Think Of Me
TTITLE6=Loose Talk (With Buck Owens)
TTITLE7=Hot Dog
TTITLE8=Playgirl (Playboy)
TTITLE9=Sweethearts In Heaven
TTITLE10=Waitin' In Your Welfare LINE
EXTD=
EXTT0=
EXTT1=
EXTT2=
EXTT3=
EXTT4=
EXTT5=
EXTT6=
EXTT7=
EXTT8=
EXTT9=
EXTT10=
PLAYORDER=
